<svg width="177" height="249" viewBox="0 0 177 249" fill="none" xmlns="http://www.w3.org/2000/svg">
<g clip-path="url(#clip0_1_3)">
<path d="M88.2484 246.545C83.1182 241.176 77.9881 236.508 73.5574 231.372C66.7945 223.669 60.0317 215.966 53.5023 208.03C47.9053 201.26 42.7751 194.024 37.6447 186.788C32.5144 179.318 27.6173 171.382 22.9533 163.679C17.5897 154.342 12.9258 144.771 8.96146 134.734C5.69667 126.097 2.89831 117.227 1.49913 108.124C0.799533 103.922 0.333139 99.487 0.0999419 95.2851C-0.366453 85.0143 0.799533 75.2109 3.5979 65.6402C5.92988 57.7038 9.19462 50.2343 13.8586 43.2314C17.5897 37.3958 22.0205 31.7936 27.1508 27.125C32.9808 21.7562 39.2771 17.0877 46.0399 13.1195C54.6681 8.21756 63.996 5.18302 73.7903 3.54905C81.0196 2.38192 88.4818 2.14849 95.7111 2.84877C103.873 3.54905 111.801 5.41646 119.264 8.21756C128.126 11.4855 136.287 16.154 143.516 22.2231C150.746 28.0587 156.809 34.828 161.939 42.7645C168.702 53.2687 173.132 64.9401 175.231 77.3116C176.164 84.0811 176.631 90.85 175.931 97.6195C175.231 105.556 173.832 113.492 171.5 121.195C168.235 132.4 163.804 143.371 158.441 153.642C154.01 162.512 148.88 171.149 143.283 179.552C135.121 191.923 126.493 203.828 116.932 215.033C110.636 222.502 104.106 229.505 97.5763 236.741C94.7782 239.775 91.5133 243.044 88.2484 246.545ZM88.0154 217.6C88.7148 216.9 89.1812 216.433 89.6476 215.733C89.8811 215.499 90.3475 215.033 90.5805 214.566C100.142 204.062 109.003 193.09 117.398 181.419C125.56 169.981 133.256 158.31 139.785 145.705C144.682 136.368 148.88 126.798 151.911 116.527C155.176 105.556 156.809 94.585 155.643 83.1473C154.943 75.6773 152.844 68.4415 149.579 61.672C145.848 53.7356 140.718 46.9662 134.422 40.8971C128.358 35.0615 121.363 30.6264 113.434 27.3584C103.873 23.3902 94.0784 21.9897 83.8176 22.4565C77.7547 22.6899 72.1581 23.8571 66.3281 25.7245C57.2332 28.759 49.0716 33.661 41.8423 40.1969C34.6132 46.7328 29.0164 54.6694 25.2853 63.5395C21.7873 71.4759 19.9217 79.8792 19.6885 88.5161C19.4554 97.8531 20.8545 106.956 23.6529 115.827C26.9176 127.031 31.5816 137.769 37.1784 148.04C41.8423 156.443 46.7394 164.846 52.1031 172.783C60.2647 184.687 68.8932 196.125 78.4545 207.096C81.719 210.597 84.9839 213.866 88.0154 217.6Z" fill="#C90000"/>
<path d="M31.5816 99.487L42.5419 114.893H64.6959L46.5062 120.729L88.4818 180.019L86.6161 182.12H137.686L152.611 116.294H165.903V99.2533C166.136 99.2533 75.656 99.487 31.5816 99.487Z" fill="#3C3C3B"/>
<path d="M19.9218 91.0837H153.544L131.856 77.5448L132.09 66.574L122.296 64.4733L121.829 59.1045L107.837 53.7356L101.308 62.6058L84.7505 61.2052L85.4504 56.07L65.3953 52.5682L63.2967 74.7441L32.2812 72.4097L32.9808 82.6804L19.9218 91.0837Z" fill="#3C3C3B"/>
</g>
<defs>
<clipPath id="clip0_1_3">
<rect width="177" height="249" fill="white"/>
</clipPath>
</defs>
</svg>
