<svg width="71" height="71" viewBox="0 0 71 71" fill="none" xmlns="http://www.w3.org/2000/svg">
<path d="M35.0943 0C15.712 0 0 15.712 0 35.0943C0 54.4767 15.712 70.1887 35.0943 70.1887C54.4767 70.1887 70.1887 54.4767 70.1887 35.0943C70.1887 15.712 54.4767 0 35.0943 0ZM48.591 39.5945C48.591 39.5945 51.6947 42.6579 52.4587 44.08C52.4807 44.1092 52.4916 44.1384 52.4989 44.1531C52.8097 44.6758 52.8828 45.0816 52.7292 45.385C52.4734 45.8895 51.596 46.1381 51.2962 46.16H45.8127C45.4325 46.16 44.6356 46.0613 43.6705 45.396C42.9284 44.8769 42.1973 44.0251 41.4844 43.1953C40.4206 41.9597 39.4994 40.8922 38.5709 40.8922C38.4529 40.892 38.3357 40.9105 38.2236 40.9471C37.5217 41.1737 36.6224 42.1754 36.6224 44.844C36.6224 45.6775 35.9644 46.1564 35.5001 46.1564H32.9887C32.1333 46.1564 27.677 45.8566 23.7289 41.6928C18.8961 36.5932 14.5459 26.3646 14.5093 26.2696C14.2351 25.6079 14.8018 25.2533 15.4196 25.2533H20.9579C21.6963 25.2533 21.9376 25.7029 22.1058 26.1014C22.3032 26.5657 23.027 28.4118 24.2151 30.4882C26.1416 33.8733 27.3224 35.2479 28.2692 35.2479C28.4468 35.2458 28.6211 35.2006 28.7774 35.1163C30.013 34.429 29.7827 30.0239 29.7278 29.11C29.7278 28.9382 29.7242 27.1396 29.0917 26.2769C28.6384 25.6518 27.8671 25.4142 27.3992 25.3264C27.5886 25.0651 27.8381 24.8532 28.1266 24.7086C28.9748 24.2846 30.5028 24.2224 32.0199 24.2224H32.8644C34.5094 24.2443 34.9335 24.3504 35.5294 24.5002C36.7357 24.789 36.7613 25.5677 36.6553 28.2327C36.6224 28.9894 36.5895 29.8448 36.5895 30.8538C36.5895 31.0731 36.5785 31.3071 36.5785 31.5557C36.542 32.9119 36.4981 34.4509 37.4559 35.0834C37.5808 35.1617 37.7252 35.2035 37.8726 35.204C38.2053 35.204 39.207 35.204 41.9195 30.5504C42.756 29.0525 43.4829 27.496 44.0946 25.893C44.1494 25.798 44.3103 25.5055 44.5004 25.3922C44.6406 25.3207 44.7962 25.2843 44.9537 25.2862H51.4644C52.1736 25.2862 52.6598 25.3922 52.7512 25.6664C52.912 26.1014 52.7219 27.4284 49.7499 31.4533L48.4229 33.2044C45.7287 36.7357 45.7287 36.9149 48.591 39.5945Z" fill="#C90000"/>
</svg>
