<svg id="Слой_2" data-name="Слой 2" xmlns="http://www.w3.org/2000/svg" viewBox="0 0 300 300"><defs><style>.cls-1{fill:#c90000;}.cls-2{fill:#3c3c3b;}</style></defs><path class="cls-1" d="M150.06,26.56c-49.13,0-88.95,38.1-88.95,85.09,0,.56,0,1.13,0,1.73a125,125,0,0,0,3.27,26.91c.71,3,4,16.74,13.41,34.12,20.22,37.49,69.68,94,72.17,96.88,40.73-45.73,66.74-84.35,74.79-103.65,4.36-10.45,7.34-20.57,7.34-20.57.8-2.71,1.51-5.36,2.14-7.92a191,191,0,0,0,4.75-27.5C239,64.66,199.18,26.56,150.06,26.56ZM228,141.23H214.19l-14.51,65.54H178.79c-8.11,11.11-17.74,23.36-28.79,36.32-1.12-1.32-14.48-17.29-28.5-36.32-4.9-6.66-9.88-13.69-14.44-20.61a228,228,0,0,1-12.29-20.55,127.8,127.8,0,0,1-5.82-13,108.42,108.42,0,0,1-3.89-12c-.26-1-.44-1.8-.54-2.26a104.06,104.06,0,0,1-2.15-14.13c-.22-2.6-.32-5-.35-7,0-.61,0-1.2,0-1.76,0-1.27,0-2.52.11-3.77a68,68,0,0,1,135.89,0c.08,1.25.11,2.5.11,3.77a68.6,68.6,0,0,1-.56,8.77H228Z"/><path class="cls-2" d="M228,124.19v17H214.19l-14.51,65.54H121.5c-4.9-6.66-9.88-13.69-14.44-20.61a228,228,0,0,1-12.29-20.55,127.8,127.8,0,0,1-5.82-13l37.18-12.76-41.07.71c-.26-1-.44-1.8-.54-2.26a104.06,104.06,0,0,1-2.15-14.13Z"/><polygon class="cls-2" points="82.48 115.48 94.77 107.74 94.29 97.19 125.94 99.9 127.19 77.26 146.84 80.94 146.84 86.55 164.26 87.42 170.26 78.52 184 84.32 184.48 90.32 193.68 91.48 193.68 102.32 215.16 115.48 82.48 115.48"/></svg>