<svg width="71" height="71" viewBox="0 0 71 71" fill="none" xmlns="http://www.w3.org/2000/svg">
<path d="M35.0943 0C15.7223 0 0 15.7223 0 35.0943C0 54.4664 15.7223 70.1887 35.0943 70.1887C54.4664 70.1887 70.1887 54.4664 70.1887 35.0943C70.1887 15.7223 54.4664 0 35.0943 0ZM51.3781 23.8642C50.8517 29.4091 48.5706 42.8853 47.4125 49.097C46.9211 51.7291 45.9385 52.6064 45.026 52.7117C42.9906 52.8872 41.4464 51.3781 39.4811 50.0796C36.3928 48.0442 34.6381 46.7808 31.6551 44.8155C28.1808 42.5343 30.4268 41.2709 32.4272 39.2355C32.9536 38.7091 41.9377 30.5321 42.1132 29.7951C42.1376 29.6835 42.1343 29.5676 42.1038 29.4575C42.0732 29.3474 42.0162 29.2465 41.9377 29.1634C41.7272 28.9879 41.4464 29.0581 41.2008 29.0932C40.8849 29.1634 35.9717 32.4272 26.3909 38.8845C24.9872 39.8321 23.7238 40.3234 22.6008 40.2883C21.3374 40.2532 18.9509 39.5864 17.1611 38.9898C14.9502 38.2879 13.2306 37.9019 13.3709 36.6736C13.4411 36.0419 14.3185 35.4102 15.9679 34.7434C26.2155 30.2864 33.0238 27.3385 36.4279 25.9347C46.1842 21.8638 48.1845 21.1619 49.5181 21.1619C49.7989 21.1619 50.4657 21.2321 50.8868 21.583C51.2377 21.8638 51.343 22.2498 51.3781 22.5306C51.343 22.7411 51.4132 23.3728 51.3781 23.8642Z" fill="#C90000"/>
</svg>
